HIERARCHY
ROOT Hips
{
    OFFSET 0.000000 0.000000 0.000000
    CHANNELS 6 Xposition Yposition Zposition Zrotation Yrotation Xrotation
    JOINT LeftUpLeg
    {
        OFFSET 1.363060 -1.794630 0.839290
        CHANNELS 3 Zrotation Yrotation Xrotation
        JOINT LeftLeg
        {
            OFFSET 2.448110 -6.726130 0.000000
            CHANNELS 3 Zrotation Yrotation Xrotation
            JOINT LeftFoot
            {
                OFFSET 2.562200 -7.039589 0.000000
                CHANNELS 3 Zrotation Yrotation Xrotation
                JOINT LeftToeBase
                {
                    OFFSET 0.157640 -0.433110 2.322550
                    CHANNELS 3 Zrotation Yrotation Xrotation
                    End Site
                    {
                        OFFSET 0.000000 0.000000 0.000000
                    }
                }
            }
        }
    }
    JOINT RightUpLeg
    {
        OFFSET -1.305520 -1.794630 0.839290
        CHANNELS 3 Zrotation Yrotation Xrotation
        JOINT RightLeg
        {
            OFFSET -2.542530 -6.985549 0.000000
            CHANNELS 3 Zrotation Yrotation Xrotation
            JOINT RightFoot
            {
                OFFSET -2.568260 -7.056230 0.000000
                CHANNELS 3 Zrotation Yrotation Xrotation
                JOINT RightToeBase
                {
                    OFFSET -0.164730 -0.452590 2.363150
                    CHANNELS 3 Zrotation Yrotation Xrotation
                    End Site
                    {
                        OFFSET 0.000000 0.000000 0.000000
                    }
                }
            }
        }
    }
    JOINT Spine
    {
        OFFSET 0.028270 2.035590 -0.193380
        CHANNELS 3 Zrotation Yrotation Xrotation
        JOINT Spine1
        {
            OFFSET 0.056720 2.048850 -0.042750
            CHANNELS 3 Zrotation Yrotation Xrotation
            JOINT Neck1
            {
                OFFSET -0.054170 1.746240 0.172020
                CHANNELS 3 Zrotation Yrotation Xrotation
                JOINT Head
                {
                    OFFSET 0.104070 1.761360 -0.123970
                    CHANNELS 3 Zrotation Yrotation Xrotation
                    End Site
                    {
                        OFFSET 0.000000 0.000000 0.000000
                    }
                }
            }
            JOINT LeftShoulder
            {
                OFFSET 0.000000 0.000000 0.000000
                CHANNELS 3 Zrotation Yrotation Xrotation
                JOINT LeftArm
                {
                    OFFSET 3.362410 1.200890 -0.311210
                    CHANNELS 3 Zrotation Yrotation Xrotation
                    JOINT LeftForeArm
                    {
                        OFFSET 4.983000 -0.000000 -0.000000
                        CHANNELS 3 Zrotation Yrotation Xrotation
                        JOINT LeftHand
                        {
                            OFFSET 3.483560 -0.000000 -0.000000
                            CHANNELS 3 Zrotation Yrotation Xrotation
                            End Site
                            {
                                OFFSET 0.000000 0.000000 0.000000
                            }
                        }
                    }
                }
            }
            JOINT RightShoulder
            {
                OFFSET 0.000000 0.000000 0.000000
                CHANNELS 3 Zrotation Yrotation Xrotation
                JOINT RightArm
                {
                    OFFSET -3.136600 1.374050 -0.404650
                    CHANNELS 3 Zrotation Yrotation Xrotation
                    JOINT RightForeArm
                    {
                        OFFSET -5.241900 -0.000000 -0.000000
                        CHANNELS 3 Zrotation Yrotation Xrotation
                        JOINT RightHand
                        {
                            OFFSET -3.444170 -0.000000 -0.000000
                            CHANNELS 3 Zrotation Yrotation Xrotation
                            End Site
                            {
                                OFFSET 0.000000 0.000000 0.000000
                            }
                        }
                    }
                }
            }
        }
    }
}
MOTION
Frames: 16
Frame Time: 0.016667
21.366396 16.528301 -30.108910 3.327817 -17.394730 39.059551 1.802933 -14.703754 -65.488434 -4.769784 -1.642607 23.290781 -6.592054 35.386337 -12.579980 -0.763528 0.151336 -5.126690 10.356927 7.342345 -61.356377 45.001331 15.068226 75.936508 4.889830 -55.127460 -48.848679 0.032786 0.120064 -0.627643 1.855861 1.632777 8.474391 -3.714547 0.916653 0.402332 3.522777 -1.068987 6.373880 -10.051781 0.457186 -5.150221 -7.370280 -10.181469 2.995791 -66.972504 -13.417357 40.609665 12.709549 -8.877889 -14.404891 5.290798 -5.532039 -12.558205 6.385138 11.133357 5.477314 60.143162 18.349691 30.604265 -8.479329 10.169693 -9.043321 -3.665886 3.401097 -7.538712 
21.404291 16.541571 -29.970413 2.989826 -17.464930 39.205738 3.385899 -15.130628 -65.469818 -6.553188 -3.780132 24.895823 -7.820794 39.185780 -13.333210 -0.718414 -0.536752 -4.445536 9.790537 7.718809 -60.462284 45.670448 15.404450 75.535957 5.250322 -56.244209 -49.358513 0.028728 0.109065 -0.812215 1.424275 1.295979 8.246302 -3.646855 0.746632 0.494499 3.629364 -0.726537 6.313910 -9.978342 0.659783 -6.272285 -7.496799 -10.487761 3.107355 -66.402336 -13.617604 40.564747 12.878656 -8.696521 -14.807633 5.156531 -5.219634 -12.923511 6.536759 11.227118 5.583998 60.086910 18.559820 30.120722 -8.358825 10.148381 -8.985588 -4.022007 3.486976 -7.543283 
21.455397 16.564768 -29.836258 2.617337 -17.533482 39.267754 2.913458 -14.537439 -65.634460 -6.718137 -3.515995 25.408890 -7.328873 39.073086 -11.172749 -0.763019 -0.151385 -4.963120 9.680204 7.681386 -59.663040 45.184715 15.635386 74.825699 5.813390 -54.885895 -49.634453 0.021997 0.084643 -0.731584 0.976746 1.102258 8.303320 -3.572823 0.660381 0.455321 3.670686 -0.488861 6.106268 -9.135962 0.737455 -6.806376 -7.285379 -10.685360 3.007263 -66.198341 -14.039429 40.498997 12.940245 -8.571070 -14.842254 5.111112 -5.141592 -12.957602 6.372743 11.295491 5.632779 60.364372 18.471233 30.801012 -8.826883 10.074034 -9.819424 -4.281332 3.343068 -8.280421 
21.489370 16.576551 -29.694080 2.204929 -17.788031 39.415424 1.499962 -13.294258 -65.937645 -6.553414 -3.768199 26.243288 -8.549809 38.424454 -9.417180 -0.887914 -0.723205 -5.509251 9.436379 8.026599 -58.853355 44.991314 15.911645 74.173424 6.242250 -54.684357 -50.080517 0.024030 0.089540 -0.593569 0.470333 0.965539 8.072158 -3.548284 0.586416 0.461367 3.594741 -0.306230 6.143588 -8.589787 0.896812 -7.247063 -7.361262 -10.866216 2.902565 -65.659576 -14.186160 40.148861 13.079019 -8.495998 -14.989602 5.205393 -5.073619 -13.096332 6.461808 11.424789 5.789676 60.558659 18.538235 31.051670 -8.969079 10.045135 -10.066417 -4.347614 3.547566 -8.522309 
21.531471 16.585833 -29.550890 1.394192 -18.364729 39.625668 0.061600 -11.443203 -66.178436 -7.433441 -6.428175 27.982784 -10.578605 39.885677 -7.907850 -0.686623 -0.412973 -4.301056 9.266034 8.859382 -57.942135 45.931850 16.388718 74.347511 6.814399 -55.622356 -50.889870 -0.002217 -0.000146 -0.607951 -0.028166 1.216831 7.946939 -3.478476 0.717952 0.443062 3.833500 -0.128856 6.175654 -9.103136 1.017933 -7.966303 -7.288249 -10.838129 2.780309 -65.359978 -14.456383 39.476089 13.348703 -8.649416 -15.303017 5.363805 -4.736449 -13.289042 6.390415 11.440494 5.864885 60.812481 18.531776 31.551973 -8.971851 9.990262 -10.340549 -4.185677 3.100600 -8.744295 
21.580118 16.596437 -29.409004 0.769774 -18.746731 39.672874 -2.684192 -9.763864 -66.484947 -6.118124 -6.782948 27.775211 -7.155065 38.885860 -0.564742 -0.351416 -0.385020 -2.048913 9.972009 8.606299 -57.268929 43.386593 16.224682 72.822571 5.834764 -52.127419 -49.143559 -0.081372 -0.270622 -0.792996 -0.505793 1.313212 7.877432 -3.424117 0.776636 0.470675 3.802559 0.013050 6.057238 -8.798013 1.176810 -7.584801 -7.244236 -10.898821 2.690121 -65.154099 -14.692915 38.993729 13.817555 -8.785688 -15.880384 5.623645 -4.955484 -13.792401 6.419421 11.533318 5.992650 60.890282 18.557177 31.925650 -8.888438 10.028304 -9.928504 -3.711877 3.313427 -8.331237 
21.623560 16.600588 -29.263596 0.142216 -19.013428 39.865948 -4.898088 -8.401952 -66.854698 -4.893120 -6.038135 27.714569 -6.489805 36.207687 0.723104 -0.122270 0.155619 -0.923232 9.907660 8.939176 -56.520439 43.553795 16.498512 72.472862 6.559699 -52.417610 -49.832775 0.303317 1.050081 -0.688379 -0.872108 1.318544 7.679736 -3.400755 0.774312 0.464070 3.672206 0.111303 6.089966 -8.489022 1.313280 -7.616990 -7.116331 -10.829898 2.548223 -65.044250 -14.766038 38.814388 14.402052 -8.938212 -16.842823 5.773421 -4.681079 -14.569922 6.348962 11.491636 6.085836 61.082561 18.784315 32.216000 -8.751543 10.068922 -9.737835 -4.331610 3.300368 -8.208587 
21.688251 16.587585 -29.126860 -0.817928 -19.362028 40.737198 -5.084037 -7.829143 -68.195999 -6.701497 -9.037826 31.247259 -5.660996 38.873077 -1.181001 0.197209 0.036860 1.263139 10.079237 9.607406 -56.455009 45.749817 17.422918 73.823112 7.061416 -54.246277 -50.826645 -0.094496 -0.315945 -0.742189 -0.853716 1.492569 6.930954 -3.545768 0.832771 0.457910 3.401731 0.132184 6.167794 -7.923697 1.408706 -7.770053 -7.101700 -10.693962 2.484804 -64.955544 -15.010519 38.668755 14.785972 -8.910863 -17.683208 5.851834 -4.619850 -15.334377 6.245054 11.540127 6.103786 61.223400 18.893064 32.395596 -8.570502 10.077760 -9.069054 -4.264998 3.135203 -7.562098 
21.734571 16.647627 -28.968473 0.094572 -17.870712 39.807190 -4.669056 -10.105257 -66.802330 -7.657978 -10.400893 32.047413 -5.395026 40.812511 -2.566005 0.228861 0.168792 1.353840 10.329535 7.571322 -55.075130 46.976082 18.570190 74.562897 8.403699 -55.754578 -52.120548 -0.016415 -0.046683 -0.803264 -1.200142 0.334130 7.726693 -3.430735 0.284674 0.360309 3.451055 0.205838 5.985829 -7.907264 1.372985 -7.206879 -6.797741 -11.174994 2.468588 -64.964638 -15.285401 38.395210 15.154390 -9.099982 -18.297880 6.020159 -4.854820 -15.860560 6.035945 11.395034 5.948454 61.395191 18.855101 32.267208 -8.520885 10.405374 -8.471574 -4.176860 3.356911 -6.936610 
21.781452 16.677906 -28.820374 -0.081820 -17.283941 39.911461 -2.888083 -11.329279 -66.261635 -7.198800 -8.175609 31.317142 -5.333265 40.037621 -3.033221 0.235294 0.194221 1.373323 10.484420 7.416160 -54.156902 46.314163 19.209681 73.877716 9.303859 -55.146126 -52.678394 -0.100629 -0.336945 -0.815107 -1.316541 -0.015434 7.702149 -3.449086 0.102382 0.365618 3.348094 0.189676 6.002333 -7.587983 1.341501 -7.280060 -6.772139 -11.330595 2.519569 -64.723953 -15.554025 38.197029 15.519856 -9.278703 -18.747383 5.892976 -4.680192 -16.146614 5.988170 11.405351 5.890426 61.517979 18.869438 31.813734 -8.516289 10.632188 -8.041658 -4.059565 3.366087 -6.464145 
21.820101 16.706009 -28.690483 -0.360462 -16.695641 40.090839 -0.996067 -12.413991 -65.893448 -7.363581 -6.650686 30.980461 -4.675767 40.286896 -3.514674 0.215071 -0.095830 1.498318 10.057383 8.006636 -53.047291 45.196808 19.491827 72.277496 10.605673 -54.374741 -53.641838 -0.110175 -0.369895 -0.662536 -1.474203 -0.323303 7.772152 -3.346031 -0.053250 0.263896 3.227193 0.194945 5.888852 -7.364005 1.342048 -6.849057 -6.457870 -11.470389 2.325500 -64.760063 -15.585474 38.335430 15.846563 -9.392836 -19.023977 6.076146 -4.776452 -16.338970 5.822044 11.397315 5.899198 61.770256 19.072050 32.024181 -8.724209 10.723940 -8.191698 -4.218147 3.360501 -6.563665 
21.855612 16.722826 -28.530888 -0.688933 -16.371893 40.260036 -1.072672 -12.689408 -65.795204 -6.964461 -6.302768 31.409065 -4.113170 39.760937 -3.747005 0.094924 0.221186 0.439542 9.815766 8.510246 -51.866455 41.308689 18.901825 68.789307 10.253659 -50.762241 -52.291813 -0.111049 -0.372920 -0.511539 -1.738680 -0.309727 7.510170 -3.451292 -0.031086 0.115654 3.306316 -0.032057 6.377645 -7.122611 1.172568 -6.944962 -6.557323 -11.640544 2.391078 -64.448318 -15.563097 38.215443 15.852880 -9.426192 -18.971777 6.130044 -4.711570 -16.279486 5.708209 11.619093 5.584091 62.322739 18.404280 31.825991 -8.782330 10.765658 -8.264176 -4.286829 3.546454 -6.637805 
21.900072 16.740801 -28.390757 -1.222431 -16.076605 40.472515 -1.386848 -12.527173 -65.912407 -7.728858 -7.974637 33.135216 -4.410048 40.817322 -5.311978 0.168945 0.740819 0.490700 9.651594 9.440995 -50.712917 42.222408 19.888485 68.869125 11.895518 -52.719669 -54.113235 -0.139578 -0.470429 -0.545350 -2.013275 -0.126683 7.475348 -3.348577 0.068866 0.089541 3.450490 -0.248600 6.298677 -6.981165 0.931421 -6.363482 -6.457816 -11.597436 2.329093 -64.456673 -15.914140 38.060341 15.928237 -9.623543 -18.762674 6.142289 -4.927877 -16.027452 5.681274 11.607805 5.576978 62.488819 18.283327 32.370308 -9.194078 10.786838 -8.913508 -4.419702 3.517311 -7.192883 
21.954811 16.697887 -28.290754 -2.814847 -15.967201 42.458176 -0.860644 -11.182957 -68.518692 -9.309177 -9.713098 36.041679 -4.286059 41.927235 -6.939496 0.249321 1.158863 0.658558 10.990548 10.594484 -51.926544 42.163624 20.391483 69.577271 12.701365 -52.418743 -55.253422 -0.144945 -0.487898 -0.301984 -1.503348 0.380090 5.804438 -3.280290 0.261974 0.251227 3.273461 -0.457588 6.124815 -6.520069 0.771122 -5.829220 -6.645238 -11.314582 2.132494 -64.369644 -16.096941 37.749268 15.713382 -9.594870 -18.018309 6.096359 -4.383532 -15.247772 6.044536 11.621234 6.023118 62.025009 18.828747 32.434422 -9.291409 10.848962 -9.130894 -4.445775 3.028385 -7.343995 
21.957546 16.762583 -28.104952 -1.974076 -15.463046 40.697594 -3.095629 -11.588599 -66.286926 -9.551936 -10.948199 36.655746 -4.135820 41.873299 -7.648030 0.253611 1.133684 0.705004 10.389482 9.607840 -48.956013 40.648678 20.688259 67.453484 13.252001 -51.102901 -54.903957 -0.135722 -0.456547 -0.273506 -2.682671 0.013293 7.238893 -3.197338 0.133367 0.227656 3.149980 -0.458089 6.367805 -5.692068 0.761229 -5.844137 -6.705999 -11.475012 2.109192 -64.065178 -15.945567 37.779186 15.973262 -9.824452 -18.541159 6.006624 -5.065053 -15.746516 6.168240 11.607367 6.016850 62.346397 18.720619 31.634796 -9.120317 11.072209 -8.731923 -4.464485 3.688338 -6.999368 
21.993813 16.778034 -27.972506 -2.175623 -14.875936 40.834618 -3.621957 -11.665825 -66.357422 -8.994924 -10.542724 36.935154 -3.593384 40.701149 -7.696573 0.182453 0.681095 0.624209 10.574236 9.456996 -48.227139 39.866657 20.928223 66.440384 13.772338 -50.948692 -54.882797 0.048578 0.170259 -0.406667 -2.944530 -0.041319 7.200869 -3.218630 0.108438 0.258031 3.250835 -0.561200 6.332812 -5.540086 0.625250 -5.596038 -6.722465 -11.460654 2.094767 -63.955105 -16.109070 37.661053 16.048645 -9.734438 -18.558279 6.125643 -4.698585 -15.727457 6.117171 11.532637 6.047564 62.635704 18.962280 32.368237 -9.235138 10.888131 -8.939361 -4.427080 3.420817 -7.177237 
